<?xml version="1.0" encoding="UTF-8" standalone="no"?>
<!-- Created with Inkscape (http://www.inkscape.org/) -->
<svg xmlns:rdf="http://www.w3.org/1999/02/22-rdf-syntax-ns#" xmlns="http://www.w3.org/2000/svg" height="80.221" width="80.221" version="1.1" xmlns:cc="http://creativecommons.org/ns#" xmlns:dc="http://purl.org/dc/elements/1.1/">
	<metadata>
		<rdf:RDF>
			<cc:Work rdf:about="">
				<dc:format>image/svg+xml</dc:format>
				<dc:type rdf:resource="http://purl.org/dc/dcmitype/StillImage"/>
				<dc:title/>
			</cc:Work>
		</rdf:RDF>
	</metadata>
	<path fill-rule="nonzero" d="m0.00339,40.111c0-22.151,17.959-40.109,40.111-40.109s40.111,17.959,40.111,40.109c0,22.153-17.959,40.112-40.111,40.112s-40.111-17.959-40.111-40.112" fill="#037c73"/>
	<path d="m54.238,21.429c-56.14-9.0637-9.4167,29.479-14.125,44.219l12.531,12.594c13.967-4.5732,24.562-16.591,27.062-31.375z" fill="#025e55"/>
	<path fill="#FFF" d="m40.096,14.612c-5.2015,0-8.9277,1.4716-12.324,4.8676-3.4653,3.4653-4.7251,6.7659-4.5128,11.841,0.1837,4.3922,1.1023,6.4757,6.4297,14.588,5.1763,7.8819,7.8384,12.849,9.6974,18.074,0.31899,0.89654,0.63976,1.6301,0.70938,1.6301s0.32659-0.57052,0.57354-1.2678c1.9095-5.3918,4.4117-10.091,9.4106-17.689,5.7644-8.762,6.9202-11.467,6.9127-16.112-0.0072-4.6044-1.3407-7.8309-4.5732-11.063-3.397-3.397-7.123-4.869-12.324-4.869zm0,9.1465c2.8803,0,5.7591,1.5378,7.1995,4.611,0.92168,1.9665,0.90456,4.6477-0.03772,6.6033-0.77024,1.5985-2.3961,3.1898-3.9846,3.8941-1.4098,0.62506-4.1195,0.78894-5.5166,0.33205-2.1625-0.70718-4.0415-2.3966-4.9657-4.46-0.78644-1.7558-0.73631-4.5729,0.10565-6.3693,1.4404-3.0731,4.3191-4.611,7.1995-4.611z"/>
</svg>
